PathFileType	4	(X/Y/Z)	/Volumes/GoogleDrive/My Drive/Research/Stanford/Projects/Digital Athlete Project/Sprinting/Sprint Simulation/sprinter/subjects/JA1/experimental_data/TRC/run0900cms.trc
DataRate	CameraRate	NumFrames	NumMarkers	Units	OrigDataRate	OrigDataStartFrame	OrigNumFrames
250.000000	250.000000	4	53	mm	250.000000	162	323
Frame#	Time	C7			RSH			LSH			MAN			T7			LARM			LELB			LFOREARM			LWR			RARM			RELB			RFOREARM			RWR			RASI			LASI			SACR			P1			P2			P3			LTHLP			LTHLD			LTHAP			LTHAD			LLEPI			LPAT			LTIAP			LTIAD			LTILAT			LLMAL			LHEEL			LMFS			LMFL			LP1MT			LTOE			LP5MT			RTHLP			RTHLD			RTHAP			RTHAD			RLEPI			RPAT			RTIAP			RTIAD			RTILAT			RLMAL			RHEEL			RMFS			RMFL			RP1MT			RTOE			RP5MT			x52			x53			
		X1	Y1	Z1	X2	Y2	Z2	X3	Y3	Z3	X4	Y4	Z4	X5	Y5	Z5	X6	Y6	Z6	X7	Y7	Z7	X8	Y8	Z8	X9	Y9	Z9	X10	Y10	Z10	X11	Y11	Z11	X12	Y12	Z12	X13	Y13	Z13	X14	Y14	Z14	X15	Y15	Z15	X16	Y16	Z16	X17	Y17	Z17	X18	Y18	Z18	X19	Y19	Z19	X20	Y20	Z20	X21	Y21	Z21	X22	Y22	Z22	X23	Y23	Z23	X24	Y24	Z24	X25	Y25	Z25	X26	Y26	Z26	X27	Y27	Z27	X28	Y28	Z28	X29	Y29	Z29	X30	Y30	Z30	X31	Y31	Z31	X32	Y32	Z32	X33	Y33	Z33	X34	Y34	Z34	X35	Y35	Z35	X36	Y36	Z36	X37	Y37	Z37	X38	Y38	Z38	X39	Y39	Z39	X40	Y40	Z40	X41	Y41	Z41	X42	Y42	Z42	X43	Y43	Z43	X44	Y44	Z44	X45	Y45	Z45	X46	Y46	Z46	X47	Y47	Z47	X48	Y48	Z48	X49	Y49	Z49	X50	Y50	Z50	X51	Y51	Z51	X52	Y52	Z52	X53	Y53	Z53	
162	0.648000	141.668655	1477.605957	185.920303	200.342758	1446.050171	367.917877	185.967438	1448.232910	19.000654	271.809631	1360.345093	198.886536	39.599491	1305.541626	206.610138	209.089157	1239.805054	-64.656723	225.985077	1099.225464	-92.514549	350.976501	1069.431030	-32.356258	460.474487	1028.148071	19.787519	91.954201	1296.624634	465.003876	-10.731004	1201.042969	517.215637	-21.337931	1051.795044	527.102356	-56.747879	925.205933	535.808960	194.871338	996.799194	283.941559	141.883728	1003.411865	81.965019	2.152717	1061.165039	247.766205	-26.914883	1041.759766	198.325699	-4.656026	1028.657349	301.801758	-52.664677	984.081970	251.503647	25.219105	709.609070	38.726894	38.331440	596.682800	50.674313	173.028824	712.481934	74.533661	162.923569	598.118774	83.498497	51.931694	473.441071	69.521584	146.221695	473.283051	110.394257	-7.680216	323.088013	171.877502	-100.855400	221.549637	197.320877	-91.331184	287.004639	111.929054	-222.546127	120.804291	169.474182	-291.826935	119.300316	225.383575	-126.785378	93.396606	213.040878	-166.730042	70.579483	158.022385	-76.063705	41.073940	243.994995	-39.276508	45.440857	205.707230	-115.221947	28.784498	124.133881	227.793793	772.981995	413.458038	305.604156	688.673889	412.137695	335.338013	797.342346	318.895844	390.724182	719.995605	318.490479	357.914520	575.471802	372.356720	434.572144	547.796265	309.153503	173.981720	586.687927	279.700500	71.862198	637.082275	249.781860	168.355835	622.313538	359.064941	-53.650291	695.829041	311.601135	-55.600788	771.574341	260.422607	-97.838478	599.947998	263.514282	-117.394585	652.761353	316.423859	-169.833557	563.543457	221.351395	-159.855774	538.436462	265.618103	-185.994095	601.947754	340.109863	-76.550377	854.412781	540.677979	516.126831	1007.166016	46.289600
163	0.652000	179.426132	1477.924194	186.720734	236.283569	1446.925415	368.770630	223.555099	1451.263062	21.311611	310.080170	1361.672852	201.276596	79.270798	1304.229736	205.859451	253.339523	1242.887085	-61.326073	277.583313	1103.018921	-86.229065	404.784637	1083.611084	-25.964653	517.198059	1052.527710	27.390188	123.595116	1302.876831	466.305603	16.583609	1212.501343	519.491150	-1.168616	1063.838867	528.686157	-41.894932	939.064087	536.731262	216.497772	1000.818237	286.353271	182.191086	1001.302551	81.003334	42.487263	1060.429565	248.363297	13.716054	1040.662109	199.144089	35.745007	1028.257812	302.740173	-12.121442	983.266602	252.712357	51.943180	708.074951	40.305004	59.152134	594.726868	52.542885	200.530563	703.985840	73.645378	182.298172	589.497742	83.237785	66.048462	469.999237	70.367401	158.347015	464.583282	111.686493	-0.321976	322.217438	170.978683	-96.372963	223.220261	195.428513	-84.053276	288.070862	110.753395	-220.016647	125.313591	166.355621	-289.269012	128.009094	221.080292	-125.382683	94.960411	210.338913	-166.030075	72.668282	155.722351	-72.699501	41.562267	241.658676	-40.921074	45.663593	206.249039	-115.109879	28.670288	123.786331	274.933228	780.974976	412.848907	357.076508	700.992249	410.249634	380.078308	811.717407	318.600189	439.973022	736.875671	317.259613	415.315674	590.070679	370.034424	493.651917	567.203308	306.732025	232.108597	588.677612	274.781097	112.794167	626.898010	257.864685	222.596313	623.600098	357.109833	-6.566332	676.793518	312.297302	-15.831278	752.750305	262.087921	-40.881298	577.459473	264.202667	-65.335327	627.880493	317.370667	-109.013306	534.775146	221.648453	-83.542542	515.724731	266.331024	-128.174347	570.217346	340.911163	-64.670525	869.285583	541.230347	574.332214	1036.729492	54.507793
164	0.656000	217.087692	1478.176025	187.709335	271.978455	1448.195435	370.002045	261.816345	1454.374146	23.459721	348.224518	1363.275757	204.094727	118.994934	1302.876465	205.076630	297.631866	1246.311035	-57.911976	328.058777	1107.575562	-79.771645	456.660431	1098.722656	-19.199642	571.226318	1077.900757	34.832336	155.222916	1309.963135	467.459534	43.812702	1224.614380	520.739624	19.429602	1077.055664	530.005005	-26.013054	953.922058	537.155029	277.100220	999.625366	286.264984	223.428375	998.469788	80.259392	83.261131	1059.591187	248.189972	54.970425	1039.431030	199.294617	76.847488	1028.118896	303.577271	28.907602	982.565552	253.472290	78.984024	707.243896	41.765110	79.958549	593.674561	53.187420	227.904037	694.781555	72.520294	202.091766	580.852417	83.773880	79.283035	468.309845	71.252281	169.779236	456.063110	113.381104	7.346310	322.685028	169.844025	-91.571503	226.397171	193.348755	-77.462059	291.775024	109.322304	-217.098282	131.402191	162.805618	-285.881439	137.788681	215.856201	-123.230644	96.885101	207.755066	-164.625168	75.119972	153.099121	-71.907997	41.924370	241.693878	-42.795181	45.803574	206.567108	-114.781235	28.636431	123.542625	320.580963	788.456421	411.927338	406.704193	713.213257	408.187805	423.875519	825.972412	318.302612	487.981506	753.760986	315.758331	471.431366	604.736023	366.646729	551.336792	587.197693	304.497437	286.159637	588.328247	276.081146	165.530380	618.076904	256.959167	276.369232	624.668091	354.719727	42.013359	656.316345	312.786530	25.430773	731.775696	263.885895	17.949196	554.680237	264.813080	-11.117936	602.014038	318.475891	-45.666748	506.512390	222.215210	-18.801655	486.559570	266.702179	-67.447472	538.312012	341.985809	-51.426193	885.061401	541.153564	629.454468	1067.318115	62.294094
165	0.660000	254.934265	1478.542480	188.115677	306.238556	1450.242065	370.102478	300.581024	1457.429443	25.806711	386.392883	1365.005615	206.969482	158.650864	1301.555176	203.828308	341.899567	1249.790894	-54.186081	377.734528	1112.648193	-73.584969	507.247772	1114.731689	-13.272176	622.781555	1104.641235	41.787853	186.764465	1318.046875	468.692169	71.512444	1237.788330	522.522827	40.822735	1091.335693	531.320801	-8.986257	969.637695	537.039001	314.111389	1001.214355	287.921204	265.583557	995.334351	80.007874	124.198441	1059.357910	247.225708	96.755310	1038.272705	198.782883	117.953499	1028.180176	303.345703	70.371483	982.019653	253.697968	106.798401	707.232788	42.764420	101.761826	593.810364	53.786491	255.017319	684.598206	73.236748	221.350861	573.463562	85.919777	91.581749	469.451324	71.984634	179.602798	448.272339	115.863853	15.711387	325.572205	168.916580	-85.291824	231.091278	190.850662	-70.644684	297.967438	107.668953	-213.395355	138.720322	159.302750	-280.456238	148.786316	211.058990	-120.563080	98.970863	205.612656	-162.370499	78.256233	150.535843	-76.942459	41.824039	243.355408	-44.759956	45.952999	207.532379	-115.028069	28.949518	123.348373	365.318115	795.408325	411.128265	455.604218	725.321594	406.257843	466.690948	839.944031	318.142853	534.747742	770.485474	314.413574	526.634766	619.771240	363.963623	607.406494	607.244934	301.578796	341.606232	589.210205	275.057648	219.007446	608.248291	256.052673	329.875183	625.375549	352.344360	92.478470	634.782349	313.640137	67.906265	708.797791	265.124695	78.592773	531.749023	265.220520	45.431644	575.874878	319.705688	20.357914	478.798065	223.225189	46.345490	458.747864	266.714417	-3.862901	506.730560	343.096405	-36.841206	901.579834	540.236816	681.501648	1099.512817	69.772118
